<?xml version="1.0" encoding="UTF-8"?>
<svg id="svg5" xmlns="http://www.w3.org/2000/svg" viewBox="0 0 815.54 1170.67">
  <g id="layer1">
    <g id="g43926">
      <g id="g43924">
        <g id="text17335">
          <path id="path43973" d="M733.7,151.33c-25.68-.9-64.82-4.35-117.42-10.35-51.22-5.61-90.38-8.71-117.45-9.31l-36.96-1.29c-10.35,47.58-23.99,124.93-40.94,232.05-15.65,99.86-29.99,177.36-43.04,232.49-2.85,12.06-6.1,30.36-9.73,54.9-3.29,24.55-6.37,43.03-9.23,55.44-5.68,23.43-14.2,43.45-25.55,60.08-15.37,22.39-33.3,33.23-53.77,32.52-13.88-.48-25.16-5.74-33.85-15.77-8.68-10.03-11.37-22.63-8.06-37.8,1.22-5.17,3.92-12.89,8.11-23.17,4.18-10.28,6.88-18,8.11-23.17,4.06-16.88,8.95-42.25,14.64-76.1,5.7-33.85,10.59-59.39,14.66-76.62,11.8-49.27,24.3-118.67,37.5-208.19,14.5-96.78,26.13-166.2,34.89-208.28l-47.39-1.13c-76-2.65-134.45-10.25-175.35-22.8-26.12-8.21-36.1-25.75-29.95-52.64,3.27-14.13,10.82-26.37,22.65-36.73C138.83,3.74,153.43-1.31,169.35,.29c12.12,1.12,39.08,5.19,80.87,12.2,33.86,5.35,61.55,8.4,83.06,9.15,20.82,.73,52.41,1.48,94.77,2.27,42.72,.45,74.49,1.04,95.31,1.76,26.72,.93,65.87,4.21,117.44,9.83,51.92,5.63,91.24,8.92,117.96,9.85,14.92,.52,26.19,6.13,33.81,16.82,7.63,10.34,9.62,23.09,5.96,38.25-3.64,14.81-11.72,27.21-24.23,37.2-12.15,9.65-25.69,14.22-40.61,13.7h0Z"/>
        </g>
        <g id="text17335-3">
          <path id="path43970" d="M1.94,814.81c2.43-14.58,9.72-26.39,21.88-35.42,12.15-9.38,25.69-14.06,40.62-14.06,17.01,0,30.03,9.72,39.06,29.17,12.15,26.39,24.31,44.27,36.46,53.65,25.69,19.44,66.67,29.17,122.92,29.17s106.08-11.63,156.77-34.9c64.93-29.86,102.78-71.35,113.54-124.48,8.68-43.75-9.2-78.3-53.65-103.65-37.85-21.88-87.5-33.68-148.96-35.42-54.17-2.08-98.44-14.06-132.81-35.94-43.75-28.12-60.24-68.4-49.48-120.83,12.15-61.81,58.51-118.23,139.06-169.27,76.39-48.26,150.35-72.4,221.87-72.4,33.68,0,70.66,5.73,110.94,17.19,53.12,14.93,77.43,34.03,72.92,57.29-6.25,30.56-25,45.83-56.25,45.83-13.89,0-37.5-3.65-70.83-10.94-32.99-7.64-59.03-11.28-78.12-10.94-54.51,.69-103.3,14.06-146.35,40.1-44.1,26.74-69.97,59.2-77.6,97.4-5.9,28.82,15.62,49.13,64.58,60.94,18.4,4.51,54.69,8.68,108.85,12.5,78.12,5.9,135.24,30.9,171.35,75,32.99,40.28,43.58,89.41,31.77,147.4-16.32,82.64-67.71,148.61-154.17,197.92-74.65,42.71-155.73,64.06-243.23,64.06-63.54,0-119.27-12.15-167.19-36.46C17.21,907.87-7.44,866.9,1.94,814.81h0Z"/>
        </g>
        <g id="text17335-7">
          <path id="path43967" d="M772.14,1094.06c-42.38,19.15-107.01,36.77-193.9,52.87-79.96,14.94-144.42,22.84-193.37,23.69-35.06,.61-59.11-4.35-72.15-14.89-18.31-14.27-23.98-40.91-17.02-79.92l42.3-173.16c37.84-159.71,74.52-336.77,110.02-531.17,2.52-14.98,9.59-27.78,21.21-38.4,11.97-10.63,25.24-16.07,39.83-16.32,14.93-.26,26.3,4.75,34.12,15.03,8.17,10.28,10.99,22.9,8.47,37.88-35.81,196.84-73.14,375.99-111.99,537.45l-21.01,79.55c-8.18,28.97-13.98,54.59-17.41,76.88,90.63-.54,209.16-23.97,355.6-70.28,6.22-1.84,11.93-2.81,17.14-2.9,14.93-.26,26.31,5.44,34.16,17.11,6.78,10.65,8.91,22.94,6.37,36.87-4.13,22.3-18.25,38.87-42.37,49.71h0Z"/>
        </g>
      </g>
    </g>
  </g>
</svg>